<?xml version="1.0" encoding="UTF-8"?>
<!DOCTYPE svg PUBLIC "-//W3C//DTD SVG 1.1//EN" "http://www.w3.org/Graphics/SVG/1.1/DTD/svg11.dtd">
<svg xmlns="http://www.w3.org/2000/svg" version="1.1" width="500px" height="500px" style="shape-rendering:geometricPrecision; text-rendering:geometricPrecision; image-rendering:optimizeQuality; fill-rule:evenodd; clip-rule:evenodd" xmlns:xlink="http://www.w3.org/1999/xlink">
<g><path style="opacity:1" fill="#ed7551" d="M 317.5,154.5 C 317.821,156.048 318.821,156.715 320.5,156.5C 325.794,160.127 330.461,164.46 334.5,169.5C 334.738,171.404 335.738,172.738 337.5,173.5C 342.385,177.603 346.052,182.603 348.5,188.5C 348.427,190.027 349.094,191.027 350.5,191.5C 351.674,192.514 352.34,193.847 352.5,195.5C 352.427,197.027 353.094,198.027 354.5,198.5C 356.679,202.203 358.345,206.203 359.5,210.5C 359.12,212.698 359.787,214.365 361.5,215.5C 373.552,263.467 361.885,304.633 326.5,339C 314.929,348.785 301.929,355.951 287.5,360.5C 285.901,360.768 284.568,360.434 283.5,359.5C 284.167,358.167 285.167,357.167 286.5,356.5C 287.906,356.027 288.573,355.027 288.5,353.5C 290.273,350.94 292.273,348.607 294.5,346.5C 296.262,345.738 297.262,344.404 297.5,342.5C 299.533,339.477 301.533,336.477 303.5,333.5C 304.906,333.027 305.573,332.027 305.5,330.5C 306.584,327.996 307.917,325.663 309.5,323.5C 310.906,323.027 311.573,322.027 311.5,320.5C 325.83,293.181 331.163,264.181 327.5,233.5C 327.785,231.712 327.452,230.045 326.5,228.5C 325.614,229.325 325.281,230.325 325.5,231.5C 323.364,241.783 319.53,251.449 314,260.5C 302.579,277.668 291.913,295.335 282,313.5C 279.195,321.413 276.695,329.413 274.5,337.5C 271.573,334.912 270.073,331.579 270,327.5C 266.109,307.162 266.942,287.162 272.5,267.5C 273.924,265.485 274.59,263.152 274.5,260.5C 277.029,252.079 279.863,243.746 283,235.5C 290.678,200.355 278.511,174.521 246.5,158C 226.143,151.363 205.643,150.863 185,156.5C 184.235,156.43 183.735,156.097 183.5,155.5C 183.557,154.391 183.89,153.391 184.5,152.5C 192.102,146.865 200.435,142.532 209.5,139.5C 213.162,139.277 216.495,138.277 219.5,136.5C 254.904,127.558 287.57,133.558 317.5,154.5 Z"/></g>
<g><path style="opacity:0.937" fill="#f7a88f" d="M 219.5,136.5 C 216.495,138.277 213.162,139.277 209.5,139.5C 212.505,137.723 215.838,136.723 219.5,136.5 Z"/></g>
<g><path style="opacity:0.251" fill="#fbdbd1" d="M 184.5,152.5 C 183.89,153.391 183.557,154.391 183.5,155.5C 182.115,154.053 182.448,153.053 184.5,152.5 Z"/></g>
<g><path style="opacity:0.918" fill="#fbbba8" d="M 317.5,154.5 C 318.71,154.932 319.71,155.599 320.5,156.5C 318.821,156.715 317.821,156.048 317.5,154.5 Z"/></g>
<g><path style="opacity:0.741" fill="#fbc4b3" d="M 334.5,169.5 C 336.262,170.262 337.262,171.596 337.5,173.5C 335.738,172.738 334.738,171.404 334.5,169.5 Z"/></g>
<g><path style="opacity:0.91" fill="#f8ae98" d="M 230.5,176.5 C 229.883,176.389 229.383,176.056 229,175.5C 228.184,176.823 227.017,177.489 225.5,177.5C 227.004,174.303 228.67,173.97 230.5,176.5 Z"/></g>
<g><path style="opacity:1" fill="#ed7753" d="M 230.5,176.5 C 232.746,178.649 234.246,181.316 235,184.5C 237.911,195.749 238.244,207.082 236,218.5C 231.476,235.762 228.309,253.262 226.5,271C 227.153,285.126 230.82,298.293 237.5,310.5C 237.427,312.027 238.094,313.027 239.5,313.5C 239.5,313.833 239.5,314.167 239.5,314.5C 239.672,315.492 239.338,316.158 238.5,316.5C 236.973,316.573 235.973,315.906 235.5,314.5C 234.738,312.738 233.404,311.738 231.5,311.5C 224.395,305.063 218.395,297.73 213.5,289.5C 213.715,287.821 213.048,286.821 211.5,286.5C 211.167,285.833 210.833,285.167 210.5,284.5C 210.715,282.821 210.048,281.821 208.5,281.5C 198.039,263.734 195.039,244.734 199.5,224.5C 200.924,222.485 201.59,220.152 201.5,217.5C 202.704,212.105 204.704,207.105 207.5,202.5C 208.906,202.027 209.573,201.027 209.5,199.5C 210.759,195.975 212.759,192.975 215.5,190.5C 216.906,190.027 217.573,189.027 217.5,187.5C 218.906,187.027 219.573,186.027 219.5,184.5C 219.5,183.833 219.833,183.5 220.5,183.5C 222.262,182.738 223.262,181.404 223.5,179.5C 223.833,178.5 224.5,177.833 225.5,177.5C 227.017,177.489 228.184,176.823 229,175.5C 229.383,176.056 229.883,176.389 230.5,176.5 Z"/></g>
<g><path style="opacity:0.871" fill="#f9b6a1" d="M 223.5,179.5 C 223.262,181.404 222.262,182.738 220.5,183.5C 220.738,181.596 221.738,180.262 223.5,179.5 Z"/></g>
<g><path style="opacity:0.533" fill="#f8b9a6" d="M 219.5,184.5 C 219.573,186.027 218.906,187.027 217.5,187.5C 217.427,185.973 218.094,184.973 219.5,184.5 Z"/></g>
<g><path style="opacity:0.545" fill="#f9bfae" d="M 217.5,187.5 C 217.573,189.027 216.906,190.027 215.5,190.5C 215.427,188.973 216.094,187.973 217.5,187.5 Z"/></g>
<g><path style="opacity:0.471" fill="#f9c0af" d="M 348.5,188.5 C 349.906,188.973 350.573,189.973 350.5,191.5C 349.094,191.027 348.427,190.027 348.5,188.5 Z"/></g>
<g><path style="opacity:0.49" fill="#f9bfae" d="M 352.5,195.5 C 353.906,195.973 354.573,196.973 354.5,198.5C 353.094,198.027 352.427,197.027 352.5,195.5 Z"/></g>
<g><path style="opacity:1" fill="#ee7a57" d="M 166.5,224.5 C 167.924,222.485 168.59,220.152 168.5,217.5C 169.796,212.607 171.462,207.94 173.5,203.5C 174.906,203.027 175.573,202.027 175.5,200.5C 177.167,200.5 178.833,200.5 180.5,200.5C 180.5,201.833 180.5,203.167 180.5,204.5C 176.682,219.257 174.682,234.257 174.5,249.5C 174.62,250.586 175.287,251.253 176.5,251.5C 177.713,251.253 178.38,250.586 178.5,249.5C 178.964,232.679 182.797,216.679 190,201.5C 193.358,197.439 196.192,197.605 198.5,202C 193.209,214.996 190.043,228.496 189,242.5C 188.976,255.61 189.976,268.61 192,281.5C 190.067,285.698 187.401,289.365 184,292.5C 182.559,295.155 181.726,297.988 181.5,301C 182.477,307.264 184.644,313.097 188,318.5C 191.414,323.066 194.58,327.732 197.5,332.5C 198.08,334.749 199.413,336.415 201.5,337.5C 210.668,344.922 220.668,351.089 231.5,356C 236.448,357.538 241.448,358.872 246.5,360C 256.898,360.849 267.231,361.849 277.5,363C 269.491,365.901 261.158,367.068 252.5,366.5C 243.208,366.857 234.208,365.857 225.5,363.5C 223.485,362.076 221.152,361.41 218.5,361.5C 209.277,359.225 201.277,354.892 194.5,348.5C 194.027,347.094 193.027,346.427 191.5,346.5C 181.027,339.03 172.694,329.697 166.5,318.5C 166.715,316.821 166.048,315.821 164.5,315.5C 162.012,311.194 159.512,306.861 157,302.5C 151.667,297.833 146.333,293.167 141,288.5C 138.473,284.779 136.473,280.779 135,276.5C 130.106,250.327 132.772,224.994 143,200.5C 144.699,199.594 146.533,199.261 148.5,199.5C 149.234,200.708 149.567,202.041 149.5,203.5C 147.023,213.412 144.856,223.412 143,233.5C 142.501,238.823 142.334,244.156 142.5,249.5C 142.62,250.586 143.287,251.253 144.5,251.5C 145.416,251.457 146.083,251.124 146.5,250.5C 147.465,242.075 148.798,233.742 150.5,225.5C 151.924,223.485 152.59,221.152 152.5,218.5C 154.175,212.805 156.009,207.139 158,201.5C 161.675,197.106 164.175,197.606 165.5,203C 163.097,212.446 160.93,221.946 159,231.5C 158.169,237.859 158.336,244.193 159.5,250.5C 160.086,250.709 160.586,251.043 161,251.5C 162.943,242.47 164.776,233.47 166.5,224.5 Z"/></g>
<g><path style="opacity:0.875" fill="#f7ad97" d="M 175.5,200.5 C 177.265,199.539 179.265,199.205 181.5,199.5C 181.784,201.415 181.451,203.081 180.5,204.5C 180.5,203.167 180.5,201.833 180.5,200.5C 178.833,200.5 177.167,200.5 175.5,200.5 Z"/></g>
<g><path style="opacity:0.278" fill="#fbd9cf" d="M 148.5,199.5 C 149.586,199.62 150.253,200.287 150.5,201.5C 150.457,202.416 150.124,203.083 149.5,203.5C 149.567,202.041 149.234,200.708 148.5,199.5 Z"/></g>
<g><path style="opacity:0.384" fill="#fac6b6" d="M 209.5,199.5 C 209.573,201.027 208.906,202.027 207.5,202.5C 207.427,200.973 208.094,199.973 209.5,199.5 Z"/></g>
<g><path style="opacity:0.443" fill="#fac1b0" d="M 175.5,200.5 C 175.573,202.027 174.906,203.027 173.5,203.5C 173.427,201.973 174.094,200.973 175.5,200.5 Z"/></g>
<g><path style="opacity:0.49" fill="#fac5b5" d="M 262.5,206.5 C 261.391,206.557 260.391,206.89 259.5,207.5C 259.987,204.285 260.987,203.952 262.5,206.5 Z"/></g>
<g><path style="opacity:1" fill="#ed7854" d="M 262.5,206.5 C 262.427,208.027 263.094,209.027 264.5,209.5C 266.531,212.422 267.698,215.755 268,219.5C 268.667,225.5 268.667,231.5 268,237.5C 266.052,249.574 263.719,261.574 261,273.5C 258.678,286.282 258.178,299.115 259.5,312C 260.23,316.523 261.563,320.857 263.5,325C 263.333,325.5 263.167,326 263,326.5C 256.391,323.39 251.225,318.723 247.5,312.5C 247.715,310.821 247.048,309.821 245.5,309.5C 234.854,287.04 232.687,263.706 239,239.5C 240.337,235.493 242.17,231.827 244.5,228.5C 245.906,228.027 246.573,227.027 246.5,225.5C 246.328,224.508 246.662,223.842 247.5,223.5C 248.906,223.027 249.573,222.027 249.5,220.5C 250.906,220.027 251.573,219.027 251.5,217.5C 253.817,213.854 256.484,210.52 259.5,207.5C 260.391,206.89 261.391,206.557 262.5,206.5 Z"/></g>
<g><path style="opacity:0.608" fill="#f8b7a3" d="M 262.5,206.5 C 263.906,206.973 264.573,207.973 264.5,209.5C 263.094,209.027 262.427,208.027 262.5,206.5 Z"/></g>
<g><path style="opacity:0.933" fill="#f9b5a1" d="M 359.5,210.5 C 360.537,211.93 361.204,213.597 361.5,215.5C 359.787,214.365 359.12,212.698 359.5,210.5 Z"/></g>
<g><path style="opacity:0.576" fill="#f9baa7" d="M 251.5,217.5 C 251.573,219.027 250.906,220.027 249.5,220.5C 249.427,218.973 250.094,217.973 251.5,217.5 Z"/></g>
<g><path style="opacity:0.937" fill="#f8ae97" d="M 168.5,217.5 C 168.59,220.152 167.924,222.485 166.5,224.5C 166.41,221.848 167.076,219.515 168.5,217.5 Z"/></g>
<g><path style="opacity:0.486" fill="#fac0af" d="M 249.5,220.5 C 249.573,222.027 248.906,223.027 247.5,223.5C 247.427,221.973 248.094,220.973 249.5,220.5 Z"/></g>
<g><path style="opacity:0.647" fill="#f8b6a2" d="M 201.5,217.5 C 201.59,220.152 200.924,222.485 199.5,224.5C 199.41,221.848 200.076,219.515 201.5,217.5 Z"/></g>
<g><path style="opacity:0.659" fill="#f8b39f" d="M 152.5,218.5 C 152.59,221.152 151.924,223.485 150.5,225.5C 150.41,222.848 151.076,220.515 152.5,218.5 Z"/></g>
<g><path style="opacity:0.376" fill="#fac8b9" d="M 246.5,225.5 C 246.573,227.027 245.906,228.027 244.5,228.5C 244.427,226.973 245.094,225.973 246.5,225.5 Z"/></g>
<g><path style="opacity:0.325" fill="#facfc3" d="M 327.5,233.5 C 326.833,232.833 326.167,232.167 325.5,231.5C 325.281,230.325 325.614,229.325 326.5,228.5C 327.452,230.045 327.785,231.712 327.5,233.5 Z"/></g>
<g><path style="opacity:0.055" fill="#fcdbd2" d="M 142.5,249.5 C 143.708,250.234 145.041,250.567 146.5,250.5C 146.083,251.124 145.416,251.457 144.5,251.5C 143.287,251.253 142.62,250.586 142.5,249.5 Z"/></g>
<g><path style="opacity:0.047" fill="#fdd8cd" d="M 174.5,249.5 C 175.833,250.833 177.167,250.833 178.5,249.5C 178.38,250.586 177.713,251.253 176.5,251.5C 175.287,251.253 174.62,250.586 174.5,249.5 Z"/></g>
<g><path style="opacity:0.965" fill="#f7a88f" d="M 274.5,260.5 C 274.59,263.152 273.924,265.485 272.5,267.5C 272.41,264.848 273.076,262.515 274.5,260.5 Z"/></g>
<g><path style="opacity:0.937" fill="#fbb8a4" d="M 208.5,281.5 C 210.048,281.821 210.715,282.821 210.5,284.5C 209.599,283.71 208.932,282.71 208.5,281.5 Z"/></g>
<g><path style="opacity:0.953" fill="#fbb9a4" d="M 211.5,286.5 C 213.048,286.821 213.715,287.821 213.5,289.5C 212.599,288.71 211.932,287.71 211.5,286.5 Z"/></g>
<g><path style="opacity:0.933" fill="#fcbca9" d="M 245.5,309.5 C 247.048,309.821 247.715,310.821 247.5,312.5C 246.599,311.71 245.932,310.71 245.5,309.5 Z"/></g>
<g><path style="opacity:0.773" fill="#fbc4b3" d="M 231.5,311.5 C 233.404,311.738 234.738,312.738 235.5,314.5C 233.596,314.262 232.262,313.262 231.5,311.5 Z"/></g>
<g><path style="opacity:0.275" fill="#fbd0c3" d="M 237.5,310.5 C 238.906,310.973 239.573,311.973 239.5,313.5C 238.094,313.027 237.427,312.027 237.5,310.5 Z"/></g>
<g><path style="opacity:0.933" fill="#fcbaa6" d="M 164.5,315.5 C 166.048,315.821 166.715,316.821 166.5,318.5C 165.599,317.71 164.932,316.71 164.5,315.5 Z"/></g>
<g><path style="opacity:0.2" fill="#f9cfc3" d="M 239.5,314.5 C 240.776,315.386 240.776,316.386 239.5,317.5C 238.893,317.376 238.56,317.043 238.5,316.5C 239.338,316.158 239.672,315.492 239.5,314.5 Z"/></g>
<g><path style="opacity:0.388" fill="#facdc0" d="M 311.5,320.5 C 311.573,322.027 310.906,323.027 309.5,323.5C 309.427,321.973 310.094,320.973 311.5,320.5 Z"/></g>
<g><path style="opacity:0.4" fill="#fac7b8" d="M 305.5,330.5 C 305.573,332.027 304.906,333.027 303.5,333.5C 303.427,331.973 304.094,330.973 305.5,330.5 Z"/></g>
<g><path style="opacity:0.808" fill="#fbc2b1" d="M 197.5,332.5 C 199.587,333.585 200.92,335.251 201.5,337.5C 199.413,336.415 198.08,334.749 197.5,332.5 Z"/></g>
<g><path style="opacity:0.89" fill="#f9b7a3" d="M 297.5,342.5 C 297.262,344.404 296.262,345.738 294.5,346.5C 294.738,344.596 295.738,343.262 297.5,342.5 Z"/></g>
<g><path style="opacity:0.549" fill="#f9c1b0" d="M 191.5,346.5 C 193.027,346.427 194.027,347.094 194.5,348.5C 192.973,348.573 191.973,347.906 191.5,346.5 Z"/></g>
<g><path style="opacity:0.737" fill="#fabfae" d="M 288.5,353.5 C 288.573,355.027 287.906,356.027 286.5,356.5C 286.427,354.973 287.094,353.973 288.5,353.5 Z"/></g>
<g><path style="opacity:0.467" fill="#f8c8ba" d="M 283.5,359.5 C 284.568,360.434 285.901,360.768 287.5,360.5C 285.712,361.622 283.712,361.789 281.5,361C 282.044,360.283 282.711,359.783 283.5,359.5 Z"/></g>
<g><path style="opacity:0.976" fill="#f6a68d" d="M 218.5,361.5 C 221.152,361.41 223.485,362.076 225.5,363.5C 222.848,363.59 220.515,362.924 218.5,361.5 Z"/></g>
</svg>
